<?xml version="1.0" encoding="iso-8859-1"?>
<!-- Generator: Adobe Illustrator 19.0.0, SVG Export Plug-In . SVG Version: 6.00 Build 0)  -->
<svg version="1.1" id="Layer_1" xmlns="http://www.w3.org/2000/svg" xmlns:xlink="http://www.w3.org/1999/xlink" x="0px" y="0px"
	 viewBox="0 0 490.6 490.6" style="enable-background:new 0 0 490.6 490.6;" xml:space="preserve">
<g>
	<g>
		<path style="fill:#2C2F33;" d="M326.8,187.25c14.8,0,26.8-12,26.8-26.8v-117c0-14.8-12-26.8-26.8-26.8h-163
			c-14.8,0-26.8,12-26.8,26.8v117c0,14.8,12,26.8,26.8,26.8h71.6v22.4h-22.9c-5.5,0-9.9,4.4-9.9,9.9s4.4,9.9,9.9,9.9h65.6
			c5.5,0,9.9-4.4,9.9-9.9s-4.4-9.9-9.9-9.9h-22.9v-22.4H326.8z M163.8,167.45c-3.9,0-7-3.1-7-7v-117c0-3.9,3.1-7,7-7h162.9
			c3.9,0,7,3.1,7,7v117c0,3.9-3.1,7-7,7H163.8z"/>
		<path style="fill:#2C2F33;" d="M189.8,261.15h-163c-14.8,0-26.8,12-26.8,26.8v117c0,14.8,12,26.8,26.8,26.8h71.6v22.4H75.5
			c-5.5,0-9.9,4.4-9.9,9.9s4.4,9.9,9.9,9.9h65.6c5.5,0,9.9-4.4,9.9-9.9s-4.4-9.9-9.9-9.9h-22.9v-22.4h71.6c14.8,0,26.8-12,26.8-26.8
			v-117C216.6,273.25,204.5,261.15,189.8,261.15z M196.8,405.05c0,3.9-3.1,7-7,7h-163c-3.9,0-7-3.1-7-7v-117c0-3.9,3.1-7,7-7h162.9
			c3.9,0,7,3.1,7,7v117H196.8z"/>
		<path style="fill:#2C2F33;" d="M463.8,261.15h-163c-14.8,0-26.8,12-26.8,26.8v117c0,14.8,12,26.8,26.8,26.8h71.6v22.4h-22.9
			c-5.5,0-9.9,4.4-9.9,9.9s4.4,9.9,9.9,9.9h65.6c5.5,0,9.9-4.4,9.9-9.9s-4.4-9.9-9.9-9.9h-22.9v-22.4h71.6c14.8,0,26.8-12,26.8-26.8
			v-117C490.6,273.25,478.5,261.15,463.8,261.15z M470.8,405.05c0,3.9-3.1,7-7,7h-163c-3.9,0-7-3.1-7-7v-117c0-3.9,3.1-7,7-7h162.9
			c3.9,0,7,3.1,7,7v117H470.8z"/>
		<path style="fill:#3C92CA;" d="M27.7,86.25v133.3c0,5.5,4.4,9.9,9.9,9.9s9.9-4.4,9.9-9.9V96.15h53.4c5.5,0,9.9-4.4,9.9-9.9
			s-4.4-9.9-9.9-9.9H37.6C32.2,76.35,27.7,80.85,27.7,86.25z"/>
		<path style="fill:#3C92CA;" d="M453,229.55c5.5,0,9.9-4.4,9.9-9.9V86.25c0-5.5-4.4-9.9-9.9-9.9h-63.3c-5.5,0-9.9,4.4-9.9,9.9
			s4.4,9.9,9.9,9.9h53.4v123.4C443.1,225.05,447.5,229.55,453,229.55z"/>
	</g>
</g>
<g>
</g>
<g>
</g>
<g>
</g>
<g>
</g>
<g>
</g>
<g>
</g>
<g>
</g>
<g>
</g>
<g>
</g>
<g>
</g>
<g>
</g>
<g>
</g>
<g>
</g>
<g>
</g>
<g>
</g>
</svg>
