<?xml version="1.0" encoding="iso-8859-1"?>
<!-- Generator: Adobe Illustrator 19.0.0, SVG Export Plug-In . SVG Version: 6.00 Build 0)  -->
<svg version="1.1" id="Layer_1" xmlns="http://www.w3.org/2000/svg" xmlns:xlink="http://www.w3.org/1999/xlink" x="0px" y="0px"
	 viewBox="0 0 490.02 490.02" style="enable-background:new 0 0 490.02 490.02;" xml:space="preserve">
<g>
	<g>
		<g>
			<path style="fill:#3C92CA;" d="M245.11,393.317c19.5,0,38.5-3.8,56.6-11.3c36.6-15.1,65-43.6,80.2-80.2s15.2-76.8,0-113.4
				c-23-55.6-76.8-91.5-137-91.5c-19.5,0-38.5,3.8-56.6,11.3c-75.5,31.2-111.5,118.1-80.2,193.6
				C131.11,357.317,184.91,393.317,245.11,393.317z M195.91,126.517c15.7-6.5,32.2-9.8,49-9.8c52.1,0,98.7,31.1,118.7,79.3
				c13.1,31.7,13.1,66.6,0,98.2c-13.1,31.7-37.8,56.3-69.5,69.5c-15.7,6.5-32.2,9.8-49,9.8c-52.1,0-98.7-31.1-118.7-79.3
				C99.31,228.817,130.51,153.517,195.91,126.517z"/>
			<path style="fill:#2C2F33;" d="M14.41,328.017c1.5,4,5.3,6.6,9.3,6.6c1.1,0,2.2-0.2,3.3-0.6c5.1-1.8,7.8-7.5,6-12.7
				c-29.3-81.9-9.8-171.4,51-233.6c42-43,98.3-67.1,158.4-67.8c60-0.7,116.9,22,159.9,64l-25.3,0.3c-5.5,0.1-9.8,4.5-9.8,10
				c0.1,5.4,4.5,9.8,9.9,9.8h0.1l49.2-0.6c2.6,0,5.1-1.1,7-3c1.8-1.9,2.8-4.4,2.8-7l-0.6-49.2c-0.1-5.5-4.5-10-10-9.8
				c-5.5,0.1-9.8,4.5-9.8,10l0.3,25.3c-46.8-45.7-108.5-70.4-173.9-69.7c-65.4,0.9-126.7,27-172.4,73.8
				c-32.7,33.5-55.1,75.4-64.6,121C-4.09,239.317-0.89,285.317,14.41,328.017z"/>
		</g>
		<path style="fill:#2C2F33;" d="M406.01,402.417c-86.7,88.8-229.5,90.4-318.3,3.8l25.3-0.3c5.5-0.1,9.8-4.5,9.8-10
			c-0.1-5.4-4.5-9.8-9.9-9.8h-0.1l-49.2,0.6c-5.5,0.1-9.8,4.5-9.8,10l0.6,49.2c0.1,5.4,4.5,9.8,9.9,9.8h0.1c5.5-0.1,9.8-4.5,9.8-10
			l-0.3-25.3c47.6,46.4,109.3,69.6,171.1,69.6c63.7,0,127.3-24.6,175.2-73.6c32.7-33.5,55.1-75.4,64.6-121
			c9.3-44.4,6.1-90.5-9.2-133.1c-1.8-5.1-7.5-7.8-12.7-6c-5.1,1.8-7.8,7.5-6,12.7C486.31,250.717,466.81,340.217,406.01,402.417z"/>
	</g>
</g>
<g>
</g>
<g>
</g>
<g>
</g>
<g>
</g>
<g>
</g>
<g>
</g>
<g>
</g>
<g>
</g>
<g>
</g>
<g>
</g>
<g>
</g>
<g>
</g>
<g>
</g>
<g>
</g>
<g>
</g>
</svg>
