<svg xmlns="http://www.w3.org/2000/svg" viewBox="0 0 470 470"><path d="M404.917 461.94c-.109-55.987-16.732-104.51-50.81-148.331-29.398-37.804-68.021-67.604-105.374-96.424C177.421 162.163 110.062 110.191 110.062 7.5a7.5 7.5 0 0 0-7.5-7.5h-30a7.5 7.5 0 0 0-7.5 7.5c0 56.221 16.62 104.924 50.809 148.89 23.403 30.095 52.656 55.113 82.459 78.608-27.877 21.961-58.428 47.709-82.459 78.612-34.189 43.966-50.809 92.668-50.809 148.89a7.5 7.5 0 0 0 7.5 7.5h30a7.5 7.5 0 0 0 7.5-7.5c0-7.788.386-15.276 1.122-22.5h53.335a7.5 7.5 0 0 0 0-15h-51.241c2.892-16.09 7.673-30.807 14.052-44.515h185.739a7.5 7.5 0 0 0 0-15H135.153c9.25-15.944 20.757-30.564 34.006-44.516h91.552a7.5 7.5 0 0 0 0-15h-76.413c15.349-14.395 32.452-28.308 50.696-42.52C300.977 314.761 359.918 366.44 359.918 462.5a7.5 7.5 0 0 0 7.5 7.5h30c4.162 0 7.52-3.358 7.52-7.5 0-.188-.007-.375-.021-.56zM160.728 307.837a7.51 7.51 0 0 0-.901.935c-8.273 8.572-16.024 17.476-23.052 26.874-8.039 10.752-14.887 21.831-20.578 33.288a7.484 7.484 0 0 0-.729 1.47c-9.276 19.06-15.347 39.174-18.299 60.592a7.569 7.569 0 0 0-.123.937A226.544 226.544 0 0 0 95.174 455H80.169c1.417-49.608 17.008-92.915 47.543-132.182 23.847-30.664 54.854-56.411 82.79-78.311a6001.604 6001.604 0 0 0 12.246 9.466c-22.127 17.276-43.407 34.724-62.02 53.864zM374.803 455c-1.424-46.424-16.173-86.979-44.97-123.759-26.875-34.327-62.115-61.517-99.427-90.305-36.61-28.248-74.467-57.457-102.694-93.754C97.177 107.915 81.586 64.608 80.169 15h15.008c1.424 46.424 16.173 86.979 44.97 123.759 26.875 34.327 62.115 61.517 99.425 90.303 36.61 28.247 74.467 57.456 102.695 93.756 30.536 39.267 46.127 82.574 47.544 132.182h-15.008z"/><path d="M156.911 89.515a7.5 7.5 0 0 0 0 15h30a7.5 7.5 0 0 0 0-15h-30z"/><path d="M134.9 45h221.884c-2.818 16.035-7.497 30.742-13.869 44.515H216.911a7.5 7.5 0 0 0 0 15h118.207c-9.111 15.733-20.557 30.344-34.047 44.516H209.27a7.5 7.5 0 0 0 0 15h76.632c-9.657 9.034-20.127 17.987-31.331 27.044A7.5 7.5 0 1 0 264 202.74c33.396-26.997 68.18-58.276 89.692-101.53a7.485 7.485 0 0 0 .902-1.847c8.665-17.874 15.063-37.778 18.185-60.245.084-.382.134-.775.157-1.176a226.033 226.033 0 0 0 1.867-22.941h15.008c-1.417 49.608-17.009 92.915-47.544 132.182-15.621 20.088-35.775 40.042-63.427 62.796a7.5 7.5 0 0 0 9.531 11.583c28.53-23.477 49.418-44.185 65.737-65.171 34.19-43.966 50.81-92.668 50.81-148.89a7.5 7.5 0 0 0-7.5-7.5h-30a7.5 7.5 0 0 0-7.5 7.5c0 7.787-.366 15.276-1.081 22.5H134.9a7.5 7.5 0 0 0 0 14.999zm200.182 380H194.519a7.5 7.5 0 0 0 0 15h140.563a7.5 7.5 0 0 0 0-15z"/></svg>