<svg xmlns="http://www.w3.org/2000/svg" viewBox="0 0 490.6 490.6"><path d="M326.8 187.25c14.8 0 26.8-12 26.8-26.8v-117c0-14.8-12-26.8-26.8-26.8h-163c-14.8 0-26.8 12-26.8 26.8v117c0 14.8 12 26.8 26.8 26.8h71.6v22.4h-22.9c-5.5 0-9.9 4.4-9.9 9.9s4.4 9.9 9.9 9.9h65.6c5.5 0 9.9-4.4 9.9-9.9s-4.4-9.9-9.9-9.9h-22.9v-22.4h71.6zm-163-19.8c-3.9 0-7-3.1-7-7v-117c0-3.9 3.1-7 7-7h162.9c3.9 0 7 3.1 7 7v117c0 3.9-3.1 7-7 7H163.8zm26 93.7h-163c-14.8 0-26.8 12-26.8 26.8v117c0 14.8 12 26.8 26.8 26.8h71.6v22.4H75.5c-5.5 0-9.9 4.4-9.9 9.9s4.4 9.9 9.9 9.9h65.6c5.5 0 9.9-4.4 9.9-9.9s-4.4-9.9-9.9-9.9h-22.9v-22.4h71.6c14.8 0 26.8-12 26.8-26.8v-117c0-14.7-12.1-26.8-26.8-26.8zm7 143.9c0 3.9-3.1 7-7 7h-163c-3.9 0-7-3.1-7-7v-117c0-3.9 3.1-7 7-7h162.9c3.9 0 7 3.1 7 7v117h.1zm267-143.9h-163c-14.8 0-26.8 12-26.8 26.8v117c0 14.8 12 26.8 26.8 26.8h71.6v22.4h-22.9c-5.5 0-9.9 4.4-9.9 9.9s4.4 9.9 9.9 9.9h65.6c5.5 0 9.9-4.4 9.9-9.9s-4.4-9.9-9.9-9.9h-22.9v-22.4h71.6c14.8 0 26.8-12 26.8-26.8v-117c0-14.7-12.1-26.8-26.8-26.8zm7 143.9c0 3.9-3.1 7-7 7h-163c-3.9 0-7-3.1-7-7v-117c0-3.9 3.1-7 7-7h162.9c3.9 0 7 3.1 7 7v117h.1z" fill="#2c2f33"/><path d="M27.7 86.25v133.3c0 5.5 4.4 9.9 9.9 9.9s9.9-4.4 9.9-9.9V96.15h53.4c5.5 0 9.9-4.4 9.9-9.9s-4.4-9.9-9.9-9.9H37.6c-5.4 0-9.9 4.5-9.9 9.9zM453 229.55c5.5 0 9.9-4.4 9.9-9.9V86.25c0-5.5-4.4-9.9-9.9-9.9h-63.3c-5.5 0-9.9 4.4-9.9 9.9s4.4 9.9 9.9 9.9h53.4v123.4c0 5.5 4.4 10 9.9 10z" fill="#3c92ca"/></svg>