<svg xmlns="http://www.w3.org/2000/svg" viewBox="0 0 490.02 490.02"><path d="M245.11 393.317c19.5 0 38.5-3.8 56.6-11.3 36.6-15.1 65-43.6 80.2-80.2s15.2-76.8 0-113.4c-23-55.6-76.8-91.5-137-91.5-19.5 0-38.5 3.8-56.6 11.3-75.5 31.2-111.5 118.1-80.2 193.6 23 55.5 76.8 91.5 137 91.5zm-49.2-266.8c15.7-6.5 32.2-9.8 49-9.8 52.1 0 98.7 31.1 118.7 79.3 13.1 31.7 13.1 66.6 0 98.2-13.1 31.7-37.8 56.3-69.5 69.5-15.7 6.5-32.2 9.8-49 9.8-52.1 0-98.7-31.1-118.7-79.3-27.1-65.4 4.1-140.7 69.5-167.7z" fill="#3c92ca"/><path d="M14.41 328.017c1.5 4 5.3 6.6 9.3 6.6 1.1 0 2.2-.2 3.3-.6 5.1-1.8 7.8-7.5 6-12.7-29.3-81.9-9.8-171.4 51-233.6 42-43 98.3-67.1 158.4-67.8 60-.7 116.9 22 159.9 64l-25.3.3c-5.5.1-9.8 4.5-9.8 10 .1 5.4 4.5 9.8 9.9 9.8h.1l49.2-.6c2.6 0 5.1-1.1 7-3 1.8-1.9 2.8-4.4 2.8-7l-.6-49.2c-.1-5.5-4.5-10-10-9.8-5.5.1-9.8 4.5-9.8 10l.3 25.3c-46.8-45.7-108.5-70.4-173.9-69.7-65.4.9-126.7 27-172.4 73.8-32.7 33.5-55.1 75.4-64.6 121-9.3 44.5-6.1 90.5 9.2 133.2zm391.6 74.4c-86.7 88.8-229.5 90.4-318.3 3.8l25.3-.3c5.5-.1 9.8-4.5 9.8-10-.1-5.4-4.5-9.8-9.9-9.8h-.1l-49.2.6c-5.5.1-9.8 4.5-9.8 10l.6 49.2c.1 5.4 4.5 9.8 9.9 9.8h.1c5.5-.1 9.8-4.5 9.8-10l-.3-25.3c47.6 46.4 109.3 69.6 171.1 69.6 63.7 0 127.3-24.6 175.2-73.6 32.7-33.5 55.1-75.4 64.6-121 9.3-44.4 6.1-90.5-9.2-133.1-1.8-5.1-7.5-7.8-12.7-6-5.1 1.8-7.8 7.5-6 12.7 29.4 81.7 9.9 171.2-50.9 233.4z" fill="#2c2f33"/></svg>